<?xml version="1.0" encoding="UTF-8"?>
<svg width="1600" height="900" viewBox="0 0 1600 900" xmlns="http://www.w3.org/2000/svg" version="1.1">
  <defs>
    <linearGradient id="g" x1="0%" y1="0%" x2="100%" y2="100%">
      <stop offset="0%" stop-color="#FFD54F"/>
      <stop offset="100%" stop-color="#F59E0B"/>
    </linearGradient>
  </defs>
  <rect width="1600" height="900" fill="url(#g)"/>
  
  <!-- Low-poly triangles: two-tone gold palette -->
  <g opacity="1">
    <polygon points="0,0 300,0 200,200" fill="#FFD54F"/>
    <polygon points="300,0 500,0 420,220" fill="#F59E0B"/>
    <polygon points="500,0 740,0 620,240" fill="#FFD54F"/>
    <polygon points="740,0 980,0 920,240" fill="#F59E0B"/>
    <polygon points="980,0 1240,0 1160,220" fill="#FFD54F"/>
    <polygon points="1240,0 1600,0 1460,260" fill="#F59E0B"/>

    <polygon points="0,0 200,200 0,320" fill="#F59E0B"/>
    <polygon points="200,200 420,220 260,420" fill="#FFD54F"/>
    <polygon points="420,220 620,240 520,460" fill="#F59E0B"/>
    <polygon points="620,240 920,240 760,460" fill="#FFD54F"/>
    <polygon points="920,240 1160,220 1060,470" fill="#F59E0B"/>
    <polygon points="1160,220 1460,260 1300,480" fill="#FFD54F"/>

    <polygon points="0,320 260,420 80,620" fill="#FFD54F"/>
    <polygon points="260,420 520,460 320,700" fill="#F59E0B"/>
    <polygon points="520,460 760,460 620,720" fill="#FFD54F"/>
    <polygon points="760,460 1060,470 880,720" fill="#F59E0B"/>
    <polygon points="1060,470 1300,480 1120,760" fill="#FFD54F"/>
    <polygon points="1300,480 1600,420 1420,740" fill="#F59E0B"/>

    <polygon points="0,900 0,620 240,780" fill="#F59E0B"/>
    <polygon points="240,780 320,700 520,900" fill="#FFD54F"/>
    <polygon points="320,700 620,720 520,900" fill="#F59E0B"/>
    <polygon points="620,720 880,720 760,900" fill="#FFD54F"/>
    <polygon points="880,720 1120,760 980,900" fill="#F59E0B"/>
    <polygon points="1120,760 1420,740 1280,900" fill="#FFD54F"/>
    <polygon points="1420,740 1600,900 1600,420" fill="#F59E0B"/>
  </g>
</svg>
